<?xml version="1.0" encoding="utf-8"?>
<!-- Generator: Adobe Illustrator 24.0.1, SVG Export Plug-In . SVG Version: 6.00 Build 0)  -->
<svg version="1.1" id="Layer_1" xmlns="http://www.w3.org/2000/svg" xmlns:xlink="http://www.w3.org/1999/xlink" x="0px" y="0px"
	 viewBox="0 0 1190.6 841.9" style="enable-background:new 0 0 1190.6 841.9;" xml:space="preserve">
<style type="text/css">
	.st0{fill:#EF5F33;}
	.st1{fill:#FFFFFF;}
</style>
<g>
	<circle class="st0" cx="595.3" cy="414.3" r="281"/>
</g>
<g>
	<path class="st0" d="M297.7,540c-16.9-39.8-25.4-82.1-25.4-125.7c0-43.6,8.5-85.9,25.4-125.7c3-7,6.2-13.9,9.6-20.7H163.9V574
		h150.6C308.3,563.1,302.6,551.7,297.7,540z"/>
	<path class="st0" d="M883.2,267.8c3.4,6.8,6.6,13.7,9.6,20.7c16.9,39.8,25.4,82.2,25.4,125.7c0,43.6-8.5,85.9-25.4,125.7
		c-5,11.7-10.6,23.1-16.8,34h150.6V267.8H883.2z"/>
</g>
<g>
	<path class="st1" d="M504.3,305.4l-8.8,24.1c-2.2,6-4.3,10.9-6.5,14.6s-4.7,7-7.5,9.7c-5.8,5.5-12.7,8.2-20.8,8.2
		c-6.6,0-11.9-1.7-15.9-5.2c-3.1-2.7-4.7-6-4.7-10.2c0-3.4,1.1-6.3,3.3-8.6s4.9-3.5,8.1-3.5s5.8,1.1,7.7,3.2c0.9,1,1.5,1.8,1.9,2.6
		c0.3,0.8,0.8,2.4,1.4,5c0.5,1.9,1.6,2.9,3.3,2.9c1.4,0,2.5-0.6,3.5-1.8s1.4-2.7,1.4-4.4c0-2.1-1.2-5.6-3.5-10.4l-16-34.1
		c-1.7-3.5-2.9-5.8-3.8-6.6c-0.8-0.9-2.7-2-5.6-3.3c-0.9-0.4-1.6-1.1-2.3-2.1c-0.6-1-1-2-1-3c0-3.9,3.9-6.6,11.8-8
		c5.2-0.9,11.2-1.4,17.9-1.4c4.7,0,8.4,0.5,11.1,1.5c3.6,1.3,5.4,3.5,5.4,6.6c0,1.1-0.5,2.4-1.5,3.9c-1,1.4-1.5,2.7-1.5,3.8
		c0,1.1,0.2,2.2,0.7,3.3c0.5,1.2,1.4,3.1,3,5.8c1.7,3.1,3.2,4.6,4.4,4.6c1.4,0,2.8-1.4,4.3-4.1s2.2-5.3,2.2-7.9c0-2-0.6-3.7-1.7-5
		c-1.7-2-2.5-3.7-2.5-5.1c0-2.3,1.5-4.1,4.5-5.4c3-1.4,7-2,12.1-2c9.4,0,14.1,2.3,14.1,6.8c0,1.6-0.5,3-1.4,4c-1,1-2.7,1.9-5.2,2.8
		c-2.1,0.8-3.8,2.1-5,4C509.1,293.7,506.9,298.6,504.3,305.4z"/>
	<path class="st1" d="M557,272.7c8.1,0,15.2,2.1,21.3,6.3c4.4,3,7.9,6.9,10.6,11.8c2.7,5,4.1,10.3,4.1,15.8
		c0,9.6-4.4,17.8-13.2,24.5c-8.4,6.4-18,9.6-28.9,9.6c-10.6,0-19.1-3-25.7-9c-6.4-5.8-9.6-13.5-9.6-22.8c0-10.4,3.9-19,11.7-25.6
		C535.5,276.2,545.4,272.7,557,272.7z M551.7,288c-1.9,0-3.5,0.7-4.7,2.2c-1.2,1.4-1.8,3.4-1.8,5.7c0,2.7,0.5,6.3,1.5,10.9
		s2.2,8.6,3.6,12.2c1.4,3.6,3.6,5.4,6.7,5.4c3.9,0,5.9-2.5,5.9-7.5c0-3.7-0.5-7.9-1.5-12.7c-1-4.7-2.2-8.6-3.6-11.6
		C556.4,289.7,554.3,288.1,551.7,288z"/>
	<path class="st1" d="M630.1,276.5v36c0,7.7,2.5,11.6,7.6,11.6c1.3,0,2.5-0.4,3.8-1.1c1.2-0.7,2.1-1.6,2.6-2.7
		c1-2.1,1.5-6.9,1.5-14.2c0-7.3-0.2-12.2-0.7-14.9c-0.2-1.1-0.5-1.9-0.9-2.4c-0.4-0.5-1.3-1.1-2.5-1.8c-2.5-1.3-3.8-3-3.8-5
		c0-2.7,2.2-4.6,6.5-5.7c8.2-2,16.4-3.1,24.4-3.1c4.5,0,6.7,2.4,6.7,7.1c0,0.5,0,1.5-0.1,3c-0.1,2.1-0.2,4.7-0.2,7.8v29.3
		c0,1.5,1.3,2.9,3.9,4.1c2.2,1.1,3.3,2.6,3.3,4.6c0,4-4.7,7.1-14.1,9.2c-5.5,1.3-10.9,1.9-16.1,1.9c-2.1,0-3.6-0.2-4.3-0.7
		c-0.8-0.5-1.2-1.4-1.4-2.9c-0.2-2.7-1.1-4.1-2.5-4.1c-0.5,0-1,0.1-1.5,0.4c-0.4,0.2-1.8,1.1-4.1,2.7c-4.5,3.1-9.3,4.6-14.4,4.6
		c-8.5,0-14.5-2.5-18-7.4c-3-4.1-4.4-11-4.4-20.8c0-3.6,0-6.7,0.1-9.3c0-1.5,0-2.5,0-3.1c0-3.8-0.3-6.6-1-8.4
		c-0.7-1.8-1.9-3.2-3.8-4.2c-1.7-0.9-2.8-1.6-3.3-2.1s-0.7-1.3-0.7-2.2c0-3.4,2.5-5.6,7.6-6.7c8.7-1.9,17.4-2.9,26-2.9
		C628.8,273.2,630.1,274.3,630.1,276.5z"/>
	<path class="st1" d="M712.8,273.1c2.3,0,3.8,0.3,4.3,1c0.5,0.7,1,2.8,1.4,6.4c0.2,1.9,0.9,2.9,2.1,2.9c0.9,0,1.7-0.6,2.5-1.9
		c3.5-5.5,8.2-8.3,13.9-8.3c4,0,7.3,1.3,9.9,3.9c1.2,1.3,2.3,2.9,3.1,4.9c0.8,2,1.2,4,1.2,5.8c0,2.1-0.5,4.2-1.5,6.4
		c-1,2.2-2.2,4-3.8,5.4c-2.8,2.7-6.3,4.1-10.4,4.1c-2.3,0-4.2-0.4-5.7-1.2s-3.5-2.4-6-4.8c-0.9-0.9-1.8-1.4-2.6-1.4
		c-1.2,0-2,0.7-2.4,2.1c-0.4,1.4-0.6,4.3-0.6,8.8c0,6.7,0.2,11.2,0.7,13.7c0.3,1.3,0.7,2.2,1.3,2.8c0.6,0.5,1.7,1,3.6,1.6
		c4,1.2,6,3.3,6,6.2c0,1.8-0.6,3.4-1.9,4.7c-1.3,1.4-3,2.2-5.1,2.7c-4.3,0.9-10.5,1.3-18.7,1.3c-7.8,0-13.8-0.7-17.9-2.1
		c-3.6-1.2-5.4-3.4-5.4-6.4c0-2.3,1.3-4.4,4-6.2c1.3-0.8,2.2-1.6,2.7-2.3c0.5-0.7,0.8-1.6,1-2.8c0.7-4,1.1-11.5,1.1-22.4
		c0-2-0.2-3.4-0.7-4.3c-0.4-0.9-1.3-1.6-2.7-2.1c-3.1-1.2-4.7-3-4.7-5.4c0-2.1,1.1-4,3.3-5.5c2.2-1.5,5.8-3,10.9-4.5
		C702.3,274.2,708.1,273.2,712.8,273.1z"/>
	<path class="st1" d="M435,367.2l-0.9,25.9c0,0.6,0,1.1,0,1.5c0,0.9,0.3,1.3,0.9,1.3c0.3,0,1.2-0.6,2.7-1.8
		c5.2-4.3,10.9-6.4,17.1-6.4c6.2,0,11.7,2.2,16.4,6.7c5.9,5.6,8.9,12.9,8.9,22c0,12.9-4.8,23.2-14.4,30.9c-6.9,5.6-15,8.4-24.3,8.4
		c-4.6,0-8.8-0.6-12.5-1.8c-3.7-1.2-7.7-3.2-12.1-6c-0.7-0.4-1.2-0.6-1.6-0.6c-0.5,0-1.9,0.4-4.1,1.3c-1.2,0.4-2.5,0.7-4.1,0.7
		c-2.7,0-4.1-0.9-4.1-2.7c0-0.6,0.1-1.2,0.3-2c0.9-2.9,1.5-6.4,1.8-10.7c0.3-4.3,0.5-11,0.5-20.2v-18.3c0-4.6-0.2-7.4-0.5-8.6
		c-0.4-1.2-1.4-2.1-3-2.7c-2.3-1-3.9-1.9-4.8-2.9c-0.9-1-1.3-2.2-1.3-3.6c0-3,3.2-5.9,9.5-8.7c3.5-1.5,7.8-2.8,12.9-4
		c5.2-1.1,9.6-1.7,13.2-1.7C433.9,363.2,435,364.6,435,367.2z M440.7,407.7c-2.4,0-4.1,0.8-5.2,2.5c-0.8,1.2-1.3,3.8-1.3,7.6
		c0,10.4,0.4,17.4,1.1,21.1c0.6,3.4,2.5,5,5.6,5c3.2,0,5.7-1.4,7.4-4.1c1.7-2.7,2.5-6.7,2.5-12c0-7.7-1.4-13.3-4.3-16.9
		C445,408.9,443,407.8,440.7,407.7z"/>
	<path class="st1" d="M511.8,388.1c2.3,0,3.8,0.3,4.3,1s1,2.8,1.4,6.4c0.2,1.9,0.9,2.9,2.1,2.9c0.9,0,1.7-0.6,2.5-1.9
		c3.5-5.5,8.2-8.3,13.9-8.3c4,0,7.3,1.3,9.9,3.9c1.2,1.3,2.3,2.9,3.1,4.9c0.8,2,1.2,4,1.2,5.8c0,2.1-0.5,4.2-1.5,6.4s-2.2,4-3.8,5.4
		c-2.8,2.7-6.3,4.1-10.4,4.1c-2.3,0-4.2-0.4-5.7-1.2s-3.5-2.4-6-4.8c-0.9-0.9-1.8-1.4-2.6-1.4c-1.2,0-2,0.7-2.4,2.1
		s-0.6,4.3-0.6,8.8c0,6.7,0.2,11.2,0.7,13.7c0.3,1.3,0.7,2.2,1.3,2.8c0.6,0.5,1.7,1,3.6,1.6c4,1.2,6,3.3,6,6.2
		c0,1.8-0.6,3.4-1.9,4.7c-1.3,1.4-3,2.2-5.1,2.7c-4.3,0.9-10.5,1.3-18.7,1.3c-7.8,0-13.8-0.7-17.9-2.1c-3.6-1.2-5.4-3.4-5.4-6.4
		c0-2.3,1.3-4.4,4-6.2c1.3-0.8,2.2-1.6,2.7-2.3c0.5-0.7,0.8-1.6,1-2.8c0.7-4,1.1-11.5,1.1-22.4c0-2-0.2-3.4-0.7-4.3
		c-0.4-0.9-1.3-1.6-2.7-2.1c-3.1-1.2-4.7-3-4.7-5.4c0-2.1,1.1-4,3.3-5.5c2.2-1.5,5.8-3,10.9-4.5C501.2,389.2,507,388.2,511.8,388.1z
		"/>
	<path class="st1" d="M586,387.7c7.7,0,14.2,1.9,19.6,5.8c2.8,2.1,4.8,4.5,5.9,7.1c1.1,2.7,1.7,6.4,1.7,11.1l-0.1,9.9
		c0,6.9,0.5,11.3,1.5,13.3c0.5,1,1,1.6,1.4,1.9c0.4,0.3,1.4,0.5,2.8,0.7c1.4,0.2,2.1,1.2,2.1,2.8c0,2.1-0.9,4.3-2.6,6.6
		c-1.7,2.3-3.9,4.2-6.6,5.8c-3.3,1.9-6.8,2.9-10.4,2.9c-4.6,0-8.3-1.6-11-4.8c-0.9-1.2-1.8-1.7-2.6-1.7c-0.9,0-2.1,0.6-3.5,1.7
		c-4.4,3.2-9.5,4.8-15.1,4.8c-5.8,0-10.5-1.2-14.1-3.7c-2.3-1.6-4.2-3.8-5.6-6.4c-1.4-2.6-2.1-5.4-2.1-8.3c0-4.6,1.9-8.7,5.6-12.2
		c5.8-5.6,14.5-8.4,26-8.4c2.6,0,4.2-0.3,4.8-0.8c0.7-0.5,1-1.7,1-3.6c0-4.7-0.5-8.1-1.5-10.2c-1-2.1-2.6-3.2-4.8-3.2
		c-1.3,0-2.5,0.4-3.6,1.2c-1,0.8-2.3,2.3-3.9,4.4c-3.9,5.6-8.1,8.4-12.4,8.4c-2.2,0-3.9-0.6-5.3-1.9c-1.4-1.3-2.1-3-2.1-5
		c0-2.1,0.9-4.3,2.6-6.4c1.7-2.1,4-4,6.9-5.6C568.9,389.8,577.3,387.7,586,387.7z M581.6,426.1c-1.9,0-3.6,0.8-5.1,2.4
		c-1.4,1.6-2.2,3.5-2.2,5.7c0,2.1,0.5,3.8,1.5,5.1c1,1.3,2.4,2,4.1,2c3.5,0,5.3-3,5.3-9c0-2.4-0.3-4.1-0.8-4.9
		C583.9,426.6,583,426.2,581.6,426.1z"/>
	<path class="st1" d="M701.7,412.3l0.9,23.4c0.1,1.8,0.4,3.1,0.8,3.9c0.5,0.8,1.8,2.5,4.1,4.8c0.7,0.7,1,1.7,1,3
		c0,2.9-1.7,5-5.2,6.1c-3.5,1.2-9.7,1.7-18.7,1.7c-6.1,0-10.4-0.5-12.9-1.6c-2.6-1.1-3.9-2.9-3.9-5.4c0-0.9,0.1-1.5,0.4-2
		c0.3-0.4,1.2-1.4,2.7-3.1c1.8-1.9,2.7-8.1,2.7-18.6c0-6.1-0.7-10.6-2.1-13.5c-1.2-2.3-3.3-3.5-6.4-3.5c-3,0-5,1-6.1,2.9
		c-1.1,1.9-1.7,5.4-1.7,10.4v13.1c0,2.6,0.2,4.4,0.5,5.4c0.3,1,1.4,2.9,3.3,5.6c0.5,0.8,0.7,1.7,0.7,2.7c0,2.6-1.8,4.5-5.4,5.8
		c-3.6,1.2-9.3,1.9-17,1.9c-12.3,0-18.5-2.5-18.5-7.6c0-1.1,0.2-1.9,0.6-2.4c0.4-0.6,1.3-1.3,2.7-2.4c1.2-0.8,1.9-1.8,2.2-2.9
		c0.3-1.1,0.6-3.8,0.9-8c0.3-5,0.5-10.3,0.5-15.9c0-3.1-0.2-5.1-0.7-6c-0.5-1-1.8-2.1-4-3.5c-1.9-1.2-2.9-2.7-2.9-4.4
		c0-1.8,0.8-3.2,2.3-4.3c1.5-1.1,4.7-2.6,9.6-4.3c4.3-1.5,8.3-2.8,12.3-3.8c3.9-1,6.6-1.6,8.1-1.6c1.3,0,2.4,0.5,3.4,1.5
		c0.9,1,1.4,2.1,1.4,3.5c0,0.1,0,0.7-0.1,1.7c0,0.4-0.1,0.7-0.1,0.9c0,2.1,0.9,3.2,2.7,3.2c1.1,0,2.2-0.8,3.4-2.5
		c3.8-5.5,9.3-8.2,16.6-8.2c5.6,0,10.4,1.5,14.3,4.4c2.8,2.1,4.7,4.5,5.8,7.3C700.7,402.7,701.4,406.8,701.7,412.3z"/>
	<path class="st1" d="M785.9,368.6v60.6c0,3.5,0.1,5.7,0.4,6.6c0.3,1,1.1,1.9,2.4,2.9c1.6,1.1,2.7,2.1,3.2,2.9
		c0.6,0.8,0.8,1.9,0.8,3.1c0,3.5-3.6,6.2-10.7,8.1c-6.4,1.6-12.8,2.5-19.3,2.5c-1.4,0-2.3-0.2-2.8-0.6c-0.4-0.4-0.7-1.4-0.8-3
		c-0.2-2.3-1-3.4-2.4-3.4c-0.8,0-1.9,0.7-3.5,2c-4.5,3.7-9.5,5.5-15.1,5.5c-6.9,0-13-2.5-18.5-7.6c-3.2-3.1-5.8-6.6-7.8-10.6
		c-2.7-5.2-4-10.4-4-15.7c0-6.2,1.7-12.3,5.2-18.1c3.2-5.4,7.5-9.5,13-12.4c4.6-2.4,9.1-3.6,13.6-3.6c5.1,0,9.7,1.2,13.8,3.5
		c0.7,0.4,1.2,0.5,1.6,0.5c1.4,0,2.1-1.9,2.1-5.7c0-1.6-0.4-2.9-1.2-3.8c-0.8-0.9-2.2-1.6-4.2-2.2c-2.8-0.9-4.2-2.4-4.2-4.6
		c0-3.2,3.2-5.8,9.6-7.6c11.3-3.1,18.9-4.7,22.8-4.7C784,363.1,785.9,364.9,785.9,368.6z M749.8,402c-2.9,0-5.2,1.5-6.8,4.6
		c-2.3,4.1-3.4,9.4-3.4,16.1c0,6,1.1,10.6,3.3,13.6c1.5,2.2,3.7,3.3,6.3,3.3c2.9,0,5-1.7,6.3-5c1.3-3.3,2-8.7,2-16.2
		c0-6.8-0.8-11.4-2.3-13.6C753.9,403,752.1,402,749.8,402z"/>
	<path class="st1" d="M486.9,481.5l-0.9,27.8c-0.1,3.3,0.9,5,3.1,5c1.1,0,2.1-0.7,3.1-2.2c4.3-6.2,10-9.4,17.2-9.4
		c7,0,12.6,2.1,16.8,6.4c1.9,1.9,3.2,4.2,4,6.8c0.8,2.6,1.2,6.4,1.3,11.2l0.6,24c0,2.1,0.3,3.6,0.8,4.6c0.5,1,1.7,2.2,3.6,3.7
		c1.3,1,1.9,2.2,1.9,3.7c0,4.8-7.2,7.2-21.6,7.2c-12.8,0-19.3-2.2-19.3-6.7c0-0.8,0.1-1.3,0.3-1.7c0.2-0.4,1-1.5,2.3-3.2
		c1.9-2.4,2.8-8.5,2.8-18.3c0-5.9-0.6-10.2-1.7-12.9c-1.5-3.7-4.1-5.5-7.8-5.5c-2.7,0-4.7,1-6,2.9c-0.9,1.4-1.4,4.1-1.4,8v12.8
		c0.3,5.7,0.6,8.9,0.8,9.6c0.2,0.8,1.2,2.1,3.1,4.2c0.8,0.9,1.3,2,1.3,3.3c0,5-6.5,7.5-19.5,7.5c-15.2,0-22.8-2.6-22.8-7.8
		c0-1.2,0.2-2.1,0.7-2.8c0.5-0.6,1.7-1.6,3.6-3c1.7-1.2,2.8-4.4,3.5-9.7c0.6-5.2,1-13.9,1-26.1c0-9.5-0.3-16.1-0.8-19.8
		c-0.2-1.4-0.5-2.4-1-3c-0.5-0.6-1.3-1.3-2.6-2c-2.7-1.4-4.1-3.1-4.1-4.9c0-2.2,1-4,3.1-5.4c2.1-1.4,6.1-2.9,12-4.4
		c8-2.2,14.3-3.3,19.1-3.3C485.8,478.2,487,479.3,486.9,481.5z"/>
	<path class="st1" d="M599.6,539.1h-31.2c-1.4,0-2.1,0.6-2.1,1.8c0,2.9,1.6,5.6,4.7,8.1c3.1,2.5,6.5,3.8,10.1,3.8
		c2.1,0,4.5-0.4,7.1-1.2c2.6-0.8,4.7-1.8,6.4-3c1.5-1.1,2.7-1.6,3.6-1.6c1.2,0,2.3,0.7,3.4,2.1c1.1,1.4,1.7,2.9,1.7,4.4
		c0,3.2-2,6.3-6,9.2c-7,5.3-15.2,7.9-24.4,7.9c-9.3,0-17.1-2.7-23.4-8.1c-3.1-2.7-5.6-5.9-7.6-9.6c-2.6-5-3.9-10.3-3.9-15.8
		c0-7.4,2.3-14.1,6.8-20.1c3.9-5.1,8.9-9,14.9-11.5c4.5-1.9,9.4-2.9,14.7-2.9c8.4,0,15.6,2.4,21.4,7.2c3,2.4,5.4,5.2,7.2,8.5
		c2.1,3.7,3.1,7.3,3.1,10.9c0,2.9-0.6,5.2-1.8,7.1C603.1,538.2,601.5,539.1,599.6,539.1z M570.1,526.7h6.7c2.8,0,4.3-1.3,4.3-3.9
		c0-2.4-0.7-4.3-2.1-5.8c-1.4-1.5-3.2-2.3-5.4-2.3c-2.5,0-4.4,1-5.8,2.9c-1.3,1.8-2,3.7-2,5.5c0,1.3,0.3,2.3,1,2.8
		C567.4,526.5,568.5,526.7,570.1,526.7z"/>
	<path class="st1" d="M637.3,503.1c2.3,0,3.8,0.3,4.3,1c0.5,0.7,1,2.8,1.4,6.4c0.2,1.9,0.9,2.9,2.1,2.9c0.9,0,1.7-0.6,2.5-1.9
		c3.5-5.5,8.2-8.3,13.9-8.3c4,0,7.3,1.3,9.9,3.9c1.2,1.3,2.3,2.9,3.1,4.9c0.8,2,1.2,4,1.2,5.8c0,2.1-0.5,4.2-1.5,6.4
		c-1,2.2-2.2,4-3.8,5.4c-2.8,2.7-6.3,4.1-10.4,4.1c-2.3,0-4.2-0.4-5.7-1.2s-3.5-2.4-6-4.8c-0.9-0.9-1.8-1.4-2.6-1.4
		c-1.2,0-2,0.7-2.4,2.1c-0.4,1.4-0.6,4.3-0.6,8.8c0,6.7,0.2,11.2,0.7,13.7c0.3,1.3,0.7,2.2,1.3,2.8c0.6,0.5,1.7,1,3.6,1.6
		c4,1.2,6,3.3,6,6.2c0,1.8-0.6,3.4-1.9,4.7c-1.3,1.4-3,2.2-5.1,2.7c-4.3,0.9-10.5,1.3-18.7,1.3c-7.8,0-13.8-0.7-17.9-2.1
		c-3.6-1.2-5.4-3.4-5.4-6.4c0-2.3,1.3-4.4,4-6.2c1.3-0.8,2.2-1.6,2.7-2.3c0.5-0.7,0.8-1.6,1-2.8c0.7-4,1.1-11.5,1.1-22.4
		c0-2-0.2-3.4-0.7-4.3c-0.4-0.9-1.3-1.6-2.7-2.1c-3.1-1.2-4.7-3-4.7-5.4c0-2.1,1.1-4,3.3-5.5c2.2-1.5,5.8-3,10.9-4.5
		C626.7,504.2,632.5,503.2,637.3,503.1z"/>
	<path class="st1" d="M734.8,539.1h-31.2c-1.4,0-2.1,0.6-2.1,1.8c0,2.9,1.6,5.6,4.7,8.1c3.1,2.5,6.5,3.8,10.1,3.8
		c2.1,0,4.5-0.4,7.1-1.2c2.6-0.8,4.7-1.8,6.4-3c1.5-1.1,2.7-1.6,3.6-1.6c1.2,0,2.3,0.7,3.4,2.1c1.1,1.4,1.7,2.9,1.7,4.4
		c0,3.2-2,6.3-6,9.2c-7,5.3-15.2,7.9-24.4,7.9c-9.3,0-17.1-2.7-23.4-8.1c-3.1-2.7-5.6-5.9-7.6-9.6c-2.6-5-3.9-10.3-3.9-15.8
		c0-7.4,2.3-14.1,6.8-20.1c3.9-5.1,8.9-9,14.9-11.5c4.5-1.9,9.4-2.9,14.7-2.9c8.4,0,15.6,2.4,21.4,7.2c3,2.4,5.4,5.2,7.2,8.5
		c2.1,3.7,3.1,7.3,3.1,10.9c0,2.9-0.6,5.2-1.8,7.1C738.3,538.2,736.7,539.1,734.8,539.1z M705.3,526.7h6.7c2.8,0,4.3-1.3,4.3-3.9
		c0-2.4-0.7-4.3-2.1-5.8c-1.4-1.5-3.2-2.3-5.4-2.3c-2.5,0-4.4,1-5.8,2.9c-1.3,1.8-2,3.7-2,5.5c0,1.3,0.3,2.3,1,2.8
		C702.6,526.5,703.7,526.7,705.3,526.7z"/>
</g>
</svg>
